# xmcd CD database file
#
# Track frame offsets:
#	150
#	14159
#	26661
#	34381
#	40902
#	49469
#	57394
#	64989
#	72160
#	80320
#	92601
#	102480
#	112433
#	121876
#	132270
#	143100
#	151537
#	161057
#	169300
#	179216
#	188201
#	198262
#	206662
#
# Disc length: 2860 seconds
#
# Revision: 1
# Processed by: cddbd v1.5.2PL0 Copyright (c) Steve Scherf et al.
# Submitted via: CDex 1.70beta3
#
DISCID=5f0b2a17
DTITLE=村井秀清 - Marged Images
DYEAR=1900
DGENRE=Jazz
TTITLE0=世界ふれあい街歩き_main theme
TTITLE1=Adventure on the hill
TTITLE2=Afternoon in Prague
TTITLE3=Postcard from ...
TTITLE4=new town, new life
TTITLE5=Good man, Happy Dog
TTITLE6=me and whistle
TTITLE7=a little ballerina
TTITLE8=main theme pf solo ver.
TTITLE9=宿坊 ココロとカラダ満つる旅 main theme
TTITLE10=同じ屋根の下で main theme
TTITLE11=新的中国人 main theme
TTITLE12=courage
TTITLE13=the professional
TTITLE14=last exit
TTITLE15=Praise
TTITLE16=home stretch
TTITLE17=for your calm
TTITLE18=Hot corner
TTITLE19=next challenge
TTITLE20=a lantern
TTITLE21=Pegasus
TTITLE22=what's left after
EXTD=
EXTT0=
EXTT1=
EXTT2=
EXTT3=
EXTT4=
EXTT5=
EXTT6=
EXTT7=
EXTT8=
EXTT9=
EXTT10=
EXTT11=
EXTT12=
EXTT13=
EXTT14=
EXTT15=
EXTT16=
EXTT17=
EXTT18=
EXTT19=
EXTT20=
EXTT21=
EXTT22=
PLAYORDER=
